<svg width="21" height="20" viewBox="0 0 21 20" fill="none" xmlns="http://www.w3.org/2000/svg">
<path d="M9.66667 2.50008H7C5.59987 2.50008 4.8998 2.50008 4.36502 2.77257C3.89462 3.01225 3.51217 3.3947 3.27248 3.86511C3 4.39988 3 5.09995 3 6.50008V13.5001C3 14.9002 3 15.6003 3.27248 16.1351C3.51217 16.6055 3.89462 16.9879 4.36502 17.2276C4.8998 17.5001 5.59987 17.5001 7 17.5001H14C15.4001 17.5001 16.1002 17.5001 16.635 17.2276C17.1054 16.9879 17.4878 16.6055 17.7275 16.1351C18 15.6003 18 14.9002 18 13.5001V10.8334M10.5 6.66675H13.8333V10.0001M13.4167 2.91675V1.66675M16.6995 3.80063L17.5833 2.91675M17.5919 7.08341H18.8419M3 11.1227C3.54328 11.2066 4.09989 11.2501 4.66667 11.2501C8.32197 11.2501 11.5544 9.43974 13.5164 6.66675" stroke="#7F56D9" stroke-width="1.66667" stroke-linecap="round" stroke-linejoin="round"/>
</svg>
