<svg width="21" height="20" viewBox="0 0 21 20" fill="none" xmlns="http://www.w3.org/2000/svg">
<path d="M8 7.5V5C8 3.61929 6.88071 2.5 5.5 2.5C4.11929 2.5 3 3.61929 3 5C3 6.38071 4.11929 7.5 5.5 7.5H8ZM8 7.5V12.5M8 7.5H13M8 12.5V15C8 16.3807 6.88071 17.5 5.5 17.5C4.11929 17.5 3 16.3807 3 15C3 13.6193 4.11929 12.5 5.5 12.5H8ZM8 12.5H13M13 12.5H15.5C16.8807 12.5 18 13.6193 18 15C18 16.3807 16.8807 17.5 15.5 17.5C14.1193 17.5 13 16.3807 13 15V12.5ZM13 12.5V7.5M13 7.5V5C13 3.61929 14.1193 2.5 15.5 2.5C16.8807 2.5 18 3.61929 18 5C18 6.38071 16.8807 7.5 15.5 7.5H13Z" stroke="#7F56D9" stroke-width="1.66667" stroke-linecap="round" stroke-linejoin="round"/>
</svg>
