<svg width="149" height="36" viewBox="0 0 149 36" fill="none" xmlns="http://www.w3.org/2000/svg">
<path d="M27.23 8.37237C26.9058 8.0482 26.5816 7.72404 26.2575 7.39987C25.285 6.36255 24.2476 5.32522 22.951 4.67689C21.4598 3.89889 19.839 4.09339 18.2182 4.09339C15.7545 4.09339 9.59537 4.09339 5.96472 4.09339L8.42838 7.39987C12.9019 7.39987 19.9038 7.39987 23.1455 7.39987C24.507 7.39987 25.674 7.65921 26.7761 8.37237C26.9706 8.4372 27.1651 8.4372 27.23 8.37237Z" fill="#66C61C"/>
<path d="M29.9529 13.6888C29.6288 13.3646 29.3046 13.0404 28.9804 12.7163C28.0079 11.6789 26.9706 10.6416 25.674 9.99329C24.1828 9.21529 22.562 9.4098 20.9411 9.4098C18.8017 9.4098 13.6798 9.4098 10.0492 9.4098L12.5129 12.7163C16.9215 12.7163 22.951 12.7163 25.9333 12.7163C27.2948 12.7163 28.4618 12.9756 29.5639 13.6888C29.6936 13.7536 29.8233 13.7536 29.9529 13.6888Z" fill="#4CA30D"/>
<path d="M33 18.8752C32.6758 18.551 32.3516 18.2268 32.0275 17.9027C31.055 16.8654 30.0177 15.828 28.721 15.1797C27.2298 14.4017 25.609 14.5962 23.9882 14.5962C21.9784 14.5962 17.5697 14.5962 14.0039 14.5962L16.4676 17.9027C20.7465 17.9027 26.1925 17.9027 28.9155 17.9027C30.277 17.9027 31.444 18.162 32.5461 18.8752C32.7406 18.94 32.8703 19.0048 33 18.8752Z" fill="#3B7C0F"/>
<path d="M5.70532 27.6276C6.02949 27.9518 6.35365 28.2759 6.67782 28.6001C7.65031 29.6374 8.68764 30.6747 9.9843 31.3231C11.4755 32.1011 13.0963 31.9066 14.7171 31.9066H26.9706L24.5069 28.6001C20.0334 28.6001 13.0315 28.6001 9.7898 28.6001C8.42831 28.6001 7.26131 28.3408 6.15915 27.6276C5.96465 27.5628 5.83499 27.5628 5.70532 27.6276Z" fill="#66C61C"/>
<path d="M2.9823 22.3116C3.30646 22.6357 3.63063 22.9599 3.95479 23.2841C4.92729 24.3214 5.96461 25.3587 7.26127 26.0071C8.75243 26.7851 10.3733 26.5905 11.9941 26.5905H22.886L20.4224 23.2841C16.0137 23.2841 9.98426 23.2841 7.00194 23.2841C5.64045 23.2841 4.47345 23.0247 3.37129 22.3116C3.24163 22.2467 3.11197 22.2467 2.9823 22.3116Z" fill="#4CA30D"/>
<path d="M0 17.0599C0.324165 17.384 0.64833 17.7082 0.972495 18.0324C1.94499 19.0697 2.98232 20.107 4.27898 20.7553C5.77014 21.5333 7.39096 21.3388 9.01179 21.3388H18.9961L16.5324 18.0324C12.2534 18.0324 6.80747 18.0324 4.08448 18.0324C2.72299 18.0324 1.55599 17.773 0.453829 17.0599C0.25933 16.995 0.129666 16.995 0 17.0599Z" fill="#3B7C0F"/>
<path d="M40.449 10.506V25.5H43.746V19.305H50.025V16.743H43.746V13.278H50.991V10.506H40.449Z" fill="#101828"/>
<path d="M59.2602 18.906H54.4092C54.4232 18.696 54.4652 18.458 54.5352 18.192C54.6192 17.926 54.7522 17.674 54.9342 17.436C55.1302 17.198 55.3822 17.002 55.6902 16.848C56.0122 16.68 56.4112 16.596 56.8872 16.596C57.6152 16.596 58.1542 16.792 58.5042 17.184C58.8682 17.576 59.1202 18.15 59.2602 18.906ZM54.4092 20.796H62.2422C62.2982 19.956 62.2282 19.151 62.0322 18.381C61.8362 17.611 61.5142 16.925 61.0662 16.323C60.6322 15.721 60.0722 15.245 59.3862 14.895C58.7002 14.531 57.8952 14.349 56.9712 14.349C56.1452 14.349 55.3892 14.496 54.7032 14.79C54.0312 15.084 53.4502 15.49 52.9602 16.008C52.4702 16.512 52.0922 17.114 51.8262 17.814C51.5602 18.514 51.4272 19.27 51.4272 20.082C51.4272 20.922 51.5532 21.692 51.8052 22.392C52.0712 23.092 52.4422 23.694 52.9182 24.198C53.3942 24.702 53.9752 25.094 54.6612 25.374C55.3472 25.64 56.1172 25.773 56.9712 25.773C58.2032 25.773 59.2532 25.493 60.1212 24.933C60.9892 24.373 61.6332 23.442 62.0532 22.14H59.4282C59.3302 22.476 59.0642 22.798 58.6302 23.106C58.1962 23.4 57.6782 23.547 57.0762 23.547C56.2362 23.547 55.5922 23.33 55.1442 22.896C54.6962 22.462 54.4512 21.762 54.4092 20.796Z" fill="#101828"/>
<path d="M63.2548 17.982C63.2968 17.282 63.4718 16.701 63.7798 16.239C64.0878 15.777 64.4798 15.406 64.9558 15.126C65.4318 14.846 65.9638 14.65 66.5518 14.538C67.1538 14.412 67.7558 14.349 68.3578 14.349C68.9038 14.349 69.4568 14.391 70.0168 14.475C70.5768 14.545 71.0878 14.692 71.5498 14.916C72.0118 15.14 72.3898 15.455 72.6838 15.861C72.9778 16.253 73.1248 16.778 73.1248 17.436V23.085C73.1248 23.575 73.1528 24.044 73.2088 24.492C73.2648 24.94 73.3628 25.276 73.5028 25.5H70.4788C70.4228 25.332 70.3738 25.164 70.3318 24.996C70.3038 24.814 70.2828 24.632 70.2688 24.45C69.7928 24.94 69.2328 25.283 68.5888 25.479C67.9448 25.675 67.2868 25.773 66.6148 25.773C66.0968 25.773 65.6138 25.71 65.1658 25.584C64.7178 25.458 64.3258 25.262 63.9898 24.996C63.6538 24.73 63.3878 24.394 63.1918 23.988C63.0098 23.582 62.9188 23.099 62.9188 22.539C62.9188 21.923 63.0238 21.419 63.2338 21.027C63.4578 20.621 63.7378 20.299 64.0738 20.061C64.4238 19.823 64.8158 19.648 65.2498 19.536C65.6978 19.41 66.1458 19.312 66.5938 19.242C67.0418 19.172 67.4828 19.116 67.9168 19.074C68.3508 19.032 68.7358 18.969 69.0718 18.885C69.4078 18.801 69.6738 18.682 69.8698 18.528C70.0658 18.36 70.1568 18.122 70.1428 17.814C70.1428 17.492 70.0868 17.24 69.9748 17.058C69.8768 16.862 69.7368 16.715 69.5548 16.617C69.3868 16.505 69.1838 16.435 68.9458 16.407C68.7218 16.365 68.4768 16.344 68.2108 16.344C67.6228 16.344 67.1608 16.47 66.8248 16.722C66.4888 16.974 66.2928 17.394 66.2368 17.982H63.2548ZM70.1428 20.187C70.0168 20.299 69.8558 20.39 69.6598 20.46C69.4778 20.516 69.2748 20.565 69.0508 20.607C68.8408 20.649 68.6168 20.684 68.3788 20.712C68.1408 20.74 67.9028 20.775 67.6648 20.817C67.4408 20.859 67.2168 20.915 66.9928 20.985C66.7828 21.055 66.5938 21.153 66.4258 21.279C66.2718 21.391 66.1458 21.538 66.0478 21.72C65.9498 21.902 65.9008 22.133 65.9008 22.413C65.9008 22.679 65.9498 22.903 66.0478 23.085C66.1458 23.267 66.2788 23.414 66.4468 23.526C66.6148 23.624 66.8108 23.694 67.0348 23.736C67.2588 23.778 67.4898 23.799 67.7278 23.799C68.3158 23.799 68.7708 23.701 69.0928 23.505C69.4148 23.309 69.6528 23.078 69.8068 22.812C69.9608 22.532 70.0518 22.252 70.0798 21.972C70.1218 21.692 70.1428 21.468 70.1428 21.3V20.187Z" fill="#101828"/>
<path d="M78.5894 14.643V11.388H75.6074V14.643H73.8014V16.638H75.6074V23.043C75.6074 23.589 75.6984 24.03 75.8804 24.366C76.0624 24.702 76.3074 24.961 76.6154 25.143C76.9374 25.325 77.3014 25.444 77.7074 25.5C78.1274 25.57 78.5684 25.605 79.0304 25.605C79.3244 25.605 79.6254 25.598 79.9334 25.584C80.2414 25.57 80.5214 25.542 80.7734 25.5V23.19C80.6334 23.218 80.4864 23.239 80.3324 23.253C80.1784 23.267 80.0174 23.274 79.8494 23.274C79.3454 23.274 79.0094 23.19 78.8414 23.022C78.6734 22.854 78.5894 22.518 78.5894 22.014V16.638H80.7734V14.643H78.5894Z" fill="#101828"/>
<path d="M81.5622 10.506V25.5H84.5442V19.809C84.5442 18.703 84.7262 17.912 85.0902 17.436C85.4542 16.946 86.0422 16.701 86.8542 16.701C87.5682 16.701 88.0652 16.925 88.3452 17.373C88.6252 17.807 88.7652 18.472 88.7652 19.368V25.5H91.7472V18.822C91.7472 18.15 91.6842 17.541 91.5582 16.995C91.4462 16.435 91.2432 15.966 90.9492 15.588C90.6552 15.196 90.2492 14.895 89.7312 14.685C89.2272 14.461 88.5762 14.349 87.7782 14.349C87.2182 14.349 86.6442 14.496 86.0562 14.79C85.4682 15.07 84.9852 15.525 84.6072 16.155H84.5442V10.506H81.5622Z" fill="#101828"/>
<path d="M100.688 18.906H95.8375C95.8515 18.696 95.8935 18.458 95.9635 18.192C96.0475 17.926 96.1805 17.674 96.3625 17.436C96.5585 17.198 96.8105 17.002 97.1185 16.848C97.4405 16.68 97.8395 16.596 98.3155 16.596C99.0435 16.596 99.5825 16.792 99.9325 17.184C100.296 17.576 100.548 18.15 100.688 18.906ZM95.8375 20.796H103.67C103.726 19.956 103.656 19.151 103.46 18.381C103.264 17.611 102.942 16.925 102.494 16.323C102.06 15.721 101.5 15.245 100.814 14.895C100.128 14.531 99.3235 14.349 98.3995 14.349C97.5735 14.349 96.8175 14.496 96.1315 14.79C95.4595 15.084 94.8785 15.49 94.3885 16.008C93.8985 16.512 93.5205 17.114 93.2545 17.814C92.9885 18.514 92.8555 19.27 92.8555 20.082C92.8555 20.922 92.9815 21.692 93.2335 22.392C93.4995 23.092 93.8705 23.694 94.3465 24.198C94.8225 24.702 95.4035 25.094 96.0895 25.374C96.7755 25.64 97.5455 25.773 98.3995 25.773C99.6315 25.773 100.681 25.493 101.549 24.933C102.417 24.373 103.061 23.442 103.481 22.14H100.856C100.758 22.476 100.492 22.798 100.058 23.106C99.6245 23.4 99.1065 23.547 98.5045 23.547C97.6645 23.547 97.0205 23.33 96.5725 22.896C96.1245 22.462 95.8795 21.762 95.8375 20.796Z" fill="#101828"/>
<path d="M104.809 14.643V25.5H107.791V20.607C107.791 20.117 107.84 19.662 107.938 19.242C108.036 18.822 108.197 18.458 108.421 18.15C108.659 17.828 108.967 17.576 109.345 17.394C109.723 17.212 110.185 17.121 110.731 17.121C110.913 17.121 111.102 17.135 111.298 17.163C111.494 17.177 111.662 17.198 111.802 17.226V14.454C111.564 14.384 111.347 14.349 111.151 14.349C110.773 14.349 110.409 14.405 110.059 14.517C109.709 14.629 109.38 14.79 109.072 15C108.764 15.196 108.491 15.441 108.253 15.735C108.015 16.015 107.826 16.323 107.686 16.659H107.644V14.643H104.809Z" fill="#101828"/>
<path d="M115.953 22.728V13.278H118.305C119.117 13.278 119.796 13.397 120.342 13.635C120.902 13.859 121.35 14.188 121.686 14.622C122.022 15.056 122.26 15.581 122.4 16.197C122.554 16.799 122.631 17.478 122.631 18.234C122.631 19.06 122.526 19.76 122.316 20.334C122.106 20.908 121.826 21.377 121.476 21.741C121.126 22.091 120.727 22.343 120.279 22.497C119.831 22.651 119.369 22.728 118.893 22.728H115.953ZM112.656 10.506V25.5H119.124C120.272 25.5 121.266 25.311 122.106 24.933C122.96 24.541 123.667 24.009 124.227 23.337C124.801 22.665 125.228 21.867 125.508 20.943C125.788 20.019 125.928 19.011 125.928 17.919C125.928 16.673 125.753 15.588 125.403 14.664C125.067 13.74 124.591 12.97 123.975 12.354C123.373 11.738 122.652 11.276 121.812 10.968C120.986 10.66 120.09 10.506 119.124 10.506H112.656Z" fill="#101828"/>
<path d="M134.585 18.906H129.734C129.748 18.696 129.79 18.458 129.86 18.192C129.944 17.926 130.077 17.674 130.259 17.436C130.455 17.198 130.707 17.002 131.015 16.848C131.337 16.68 131.736 16.596 132.212 16.596C132.94 16.596 133.479 16.792 133.829 17.184C134.193 17.576 134.445 18.15 134.585 18.906ZM129.734 20.796H137.567C137.623 19.956 137.553 19.151 137.357 18.381C137.161 17.611 136.839 16.925 136.391 16.323C135.957 15.721 135.397 15.245 134.711 14.895C134.025 14.531 133.22 14.349 132.296 14.349C131.47 14.349 130.714 14.496 130.028 14.79C129.356 15.084 128.775 15.49 128.285 16.008C127.795 16.512 127.417 17.114 127.151 17.814C126.885 18.514 126.752 19.27 126.752 20.082C126.752 20.922 126.878 21.692 127.13 22.392C127.396 23.092 127.767 23.694 128.243 24.198C128.719 24.702 129.3 25.094 129.986 25.374C130.672 25.64 131.442 25.773 132.296 25.773C133.528 25.773 134.578 25.493 135.446 24.933C136.314 24.373 136.958 23.442 137.378 22.14H134.753C134.655 22.476 134.389 22.798 133.955 23.106C133.521 23.4 133.003 23.547 132.401 23.547C131.561 23.547 130.917 23.33 130.469 22.896C130.021 22.462 129.776 21.762 129.734 20.796Z" fill="#101828"/>
<path d="M144.711 25.5L148.386 14.643H145.425L143.136 22.056H143.094L140.805 14.643H137.676L141.393 25.5H144.711Z" fill="#101828"/>
</svg>
