<svg width="125" height="36" viewBox="0 0 125 36" fill="none" xmlns="http://www.w3.org/2000/svg">
<circle cx="17" cy="18.1874" r="15" stroke="#6927DA" stroke-width="3"/>
<path d="M22.8336 24.0212C19.7682 27.0866 16.3081 29.0738 13.2514 29.8598C10.157 30.6555 7.77018 30.1709 6.39338 28.7941C5.01657 27.4173 4.53201 25.0305 5.32772 21.9361C6.11373 18.8794 8.10089 15.4194 11.1663 12.3539C14.2318 9.28844 17.6918 7.30128 20.7485 6.51527C23.843 5.71956 26.2298 6.20412 27.6066 7.58093C28.9834 8.95773 29.4679 11.3445 28.6722 14.439C27.8862 17.4957 25.8991 20.9557 22.8336 24.0212Z" stroke="#6927DA" stroke-width="3"/>
<path d="M22.8335 12.3539C25.899 15.4193 27.8862 18.8794 28.6722 21.9361C29.4679 25.0305 28.9833 27.4173 27.6065 28.7941C26.2297 30.1709 23.8429 30.6555 20.7485 29.8598C17.6918 29.0738 14.2317 27.0866 11.1663 24.0212C8.10082 20.9557 6.11366 17.4957 5.32765 14.439C4.53194 11.3445 5.0165 8.95773 6.3933 7.58092C7.77011 6.20412 10.1569 5.71955 13.2513 6.51526C16.3081 7.30127 19.7681 9.28844 22.8335 12.3539Z" stroke="#6927DA" stroke-width="3"/>
<path d="M47.6375 25.68C51.17 25.68 53.555 23.835 53.555 20.8875C53.555 14.655 45.275 17.31 45.275 14.025C45.275 13.1025 46.1075 12.4725 47.435 12.4725C48.9425 12.4725 49.8875 13.2825 50 14.52H53.2175C53.1275 11.5275 50.8325 9.57004 47.435 9.57004C44.24 9.57004 41.99 11.415 41.99 14.025C41.99 20.2125 50.1575 17.85 50.1575 20.9325C50.1575 22.125 49.145 22.755 47.6375 22.755C45.9725 22.755 44.915 21.7425 44.78 20.145H41.54C41.675 23.4975 44.06 25.68 47.6375 25.68Z" fill="#101828"/>
<path d="M54.3202 30.09H57.4477V24.4875C58.0552 25.2525 59.1577 25.68 60.4402 25.68C63.7027 25.68 65.9077 23.3625 65.9077 19.83C65.9077 16.2975 63.8827 13.98 60.7102 13.98C59.2477 13.98 58.1227 14.52 57.4477 15.3975V14.16H54.3202V30.09ZM60.0577 22.98C58.3702 22.98 57.2677 21.72 57.2677 19.83C57.2677 17.9175 58.3702 16.6575 60.0577 16.6575C61.7002 16.6575 62.8252 17.9175 62.8252 19.83C62.8252 21.72 61.7002 22.98 60.0577 22.98Z" fill="#101828"/>
<path d="M66.6645 25.5H69.792V19.29C69.792 17.8275 70.7595 16.77 72.132 16.77C73.437 16.77 74.337 17.76 74.337 19.1325V25.5H77.4645V18.435C77.4645 15.825 75.7995 13.98 73.257 13.98C71.682 13.98 70.4445 14.6325 69.792 15.735V9.23254H66.6645V25.5Z" fill="#101828"/>
<path d="M86.2134 21.6525C85.9659 22.62 85.1334 23.115 83.8734 23.115C82.2984 23.115 81.2859 22.125 81.0609 20.5275H89.2059C89.2284 20.28 89.2509 19.9425 89.2509 19.515C89.2509 16.9275 87.6534 13.98 83.6484 13.98C79.8009 13.98 78.0459 16.9275 78.0459 19.8075C78.0459 22.665 80.0259 25.68 83.8734 25.68C86.6634 25.68 88.8234 24.105 89.2734 21.6525H86.2134ZM83.6484 16.275C85.1559 16.275 86.0334 17.2875 86.1234 18.5475H81.1059C81.3759 16.9725 82.2309 16.275 83.6484 16.275Z" fill="#101828"/>
<path d="M97.4532 16.77V14.16H95.8396C94.4671 14.16 93.6121 14.6325 93.0046 16.05V14.16H89.8546V25.5H93.0046V19.9875C93.0046 18.0525 93.7021 16.77 95.2546 16.77H97.4532Z" fill="#101828"/>
<path d="M108.253 14.16H105.103V20.37C105.103 21.81 104.136 22.89 102.763 22.89C101.481 22.89 100.581 21.9 100.581 20.5275V14.16H97.4532V21.225C97.4532 23.8125 99.1182 25.68 101.661 25.68C103.213 25.68 104.473 25.005 105.103 23.925V25.5H108.253V14.16Z" fill="#101828"/>
<path d="M109.603 25.5H112.731V9.23254H109.603V25.5Z" fill="#101828"/>
<path d="M121.66 21.6525C121.412 22.62 120.58 23.115 119.32 23.115C117.745 23.115 116.732 22.125 116.507 20.5275H124.652C124.675 20.28 124.697 19.9425 124.697 19.515C124.697 16.9275 123.1 13.98 119.095 13.98C115.247 13.98 113.492 16.9275 113.492 19.8075C113.492 22.665 115.472 25.68 119.32 25.68C122.11 25.68 124.27 24.105 124.72 21.6525H121.66ZM119.095 16.275C120.602 16.275 121.48 17.2875 121.57 18.5475H116.552C116.822 16.9725 117.677 16.275 119.095 16.275Z" fill="#101828"/>
</svg>
