<svg width="141" height="40" viewBox="0 0 141 40" fill="none" xmlns="http://www.w3.org/2000/svg">
<rect x="0.083374" y="16" width="7.99999" height="7.99999" fill="#039855"/>
<rect x="24.0834" y="24" width="8" height="7.99999" transform="rotate(180 24.0834 24)" fill="#027A48"/>
<path d="M8.0835 16L16.0835 8V16L8.0835 24V16Z" fill="#A6F4C5"/>
<path d="M16.0834 24L8.08339 32L8.08339 24L16.0834 16L16.0834 24Z" fill="#6CE9A6"/>
<path d="M0.083374 16L16.0833 0V7.99999L8.08336 16H0.083374Z" fill="#32D583"/>
<path d="M24.0834 24L8.08339 40L8.08339 32L16.0834 24L24.0834 24Z" fill="#12B76A"/>
<path d="M41.5066 28.5667C40.2466 28.5667 39.0255 28.3878 37.8433 28.0301C36.6766 27.6723 35.7511 27.1978 35.0667 26.6067L36.1167 24.2501C36.7855 24.779 37.6022 25.2145 38.5666 25.5567C39.5466 25.8834 40.5266 26.0467 41.5066 26.0467C42.72 26.0467 43.6222 25.8523 44.2133 25.4634C44.82 25.0745 45.1233 24.5612 45.1233 23.9234C45.1233 23.4567 44.9522 23.0756 44.61 22.7801C44.2833 22.469 43.8633 22.2278 43.35 22.0567C42.8366 21.8856 42.1366 21.6912 41.25 21.4734C40.0055 21.1778 38.9944 20.8823 38.2166 20.5867C37.4544 20.2912 36.7933 19.8323 36.2333 19.2101C35.6889 18.5723 35.4167 17.7167 35.4167 16.6434C35.4167 15.7412 35.6578 14.9245 36.14 14.1934C36.6378 13.4467 37.3766 12.8556 38.3566 12.4201C39.3522 11.9845 40.5655 11.7667 41.9966 11.7667C42.9922 11.7667 43.9722 11.8912 44.9366 12.1401C45.9011 12.389 46.7333 12.7467 47.4333 13.2134L46.4766 15.5701C45.7611 15.1501 45.0144 14.8312 44.2366 14.6134C43.4589 14.3956 42.7044 14.2867 41.9733 14.2867C40.7755 14.2867 39.8811 14.489 39.29 14.8934C38.7144 15.2978 38.4266 15.8345 38.4266 16.5034C38.4266 16.9701 38.59 17.3512 38.9166 17.6467C39.2589 17.9423 39.6866 18.1756 40.2 18.3467C40.7133 18.5178 41.4133 18.7123 42.3 18.9301C43.5133 19.2101 44.5089 19.5056 45.2866 19.8167C46.0644 20.1123 46.7255 20.5712 47.27 21.1934C47.83 21.8156 48.11 22.6556 48.11 23.7134C48.11 24.6156 47.8611 25.4323 47.3633 26.1634C46.8811 26.8945 46.1422 27.4778 45.1466 27.9134C44.1511 28.349 42.9378 28.5667 41.5066 28.5667Z" fill="#101828"/>
<path d="M50.8378 15.8734H53.7545V28.3334H50.8378V15.8734ZM52.3078 13.8201C51.7789 13.8201 51.3356 13.6567 50.9778 13.3301C50.62 12.9878 50.4411 12.5678 50.4411 12.0701C50.4411 11.5723 50.62 11.1601 50.9778 10.8334C51.3356 10.4912 51.7789 10.3201 52.3078 10.3201C52.8367 10.3201 53.28 10.4834 53.6378 10.8101C53.9956 11.1212 54.1745 11.5178 54.1745 12.0001C54.1745 12.5134 53.9956 12.949 53.6378 13.3067C53.2956 13.649 52.8522 13.8201 52.3078 13.8201Z" fill="#101828"/>
<path d="M61.4326 28.4967C60.4215 28.4967 59.4337 28.3645 58.4692 28.1001C57.5048 27.8356 56.7348 27.5012 56.1592 27.0967L57.2792 24.8801C57.8392 25.2534 58.5081 25.5567 59.2859 25.7901C60.0792 26.0078 60.857 26.1167 61.6192 26.1167C63.3615 26.1167 64.2326 25.6578 64.2326 24.7401C64.2326 24.3045 64.007 24.0012 63.5559 23.8301C63.1204 23.659 62.4126 23.4956 61.4326 23.3401C60.4059 23.1845 59.5659 23.0056 58.9126 22.8034C58.2748 22.6012 57.7148 22.2512 57.2326 21.7534C56.7659 21.2401 56.5326 20.5323 56.5326 19.6301C56.5326 18.4478 57.0226 17.5067 58.0026 16.8067C58.9981 16.0912 60.3359 15.7334 62.0159 15.7334C62.8715 15.7334 63.727 15.8345 64.5826 16.0367C65.4381 16.2234 66.1381 16.4801 66.6826 16.8067L65.5626 19.0234C64.5048 18.4012 63.3148 18.0901 61.9926 18.0901C61.137 18.0901 60.4837 18.2223 60.0326 18.4867C59.597 18.7356 59.3792 19.0701 59.3792 19.4901C59.3792 19.9567 59.6126 20.2912 60.0792 20.4934C60.5615 20.6801 61.3004 20.859 62.2959 21.0301C63.2915 21.1856 64.1081 21.3645 64.7459 21.5667C65.3837 21.769 65.9281 22.1112 66.3792 22.5934C66.8459 23.0756 67.0792 23.7601 67.0792 24.6467C67.0792 25.8134 66.5737 26.7467 65.5626 27.4467C64.5515 28.1467 63.1748 28.4967 61.4326 28.4967Z" fill="#101828"/>
<path d="M81.0298 15.8734L75.1965 29.3367C74.6521 30.6901 73.9909 31.639 73.2132 32.1834C72.4354 32.7434 71.4943 33.0234 70.3898 33.0234C69.7676 33.0234 69.1532 32.9223 68.5465 32.7201C67.9398 32.5178 67.4421 32.2378 67.0532 31.8801L68.2198 29.7334C68.4998 29.9978 68.8265 30.2078 69.1998 30.3634C69.5887 30.519 69.9776 30.5967 70.3665 30.5967C70.8798 30.5967 71.2998 30.4645 71.6265 30.2001C71.9687 29.9356 72.2798 29.4923 72.5598 28.8701L72.7698 28.3801L67.3332 15.8734H70.3665L74.2865 25.0901L78.2298 15.8734H81.0298Z" fill="#101828"/>
<path d="M89.7594 15.7334C90.9727 15.7334 92.0539 15.9978 93.0027 16.5267C93.9672 17.0556 94.7216 17.8023 95.2661 18.7667C95.8105 19.7312 96.0827 20.8434 96.0827 22.1034C96.0827 23.3634 95.8105 24.4834 95.2661 25.4634C94.7216 26.4278 93.9672 27.1745 93.0027 27.7034C92.0539 28.2323 90.9727 28.4967 89.7594 28.4967C88.0794 28.4967 86.7494 27.9367 85.7694 26.8167V32.8601H82.8527V15.8734H85.6294V17.5067C86.1116 16.9156 86.7027 16.4723 87.4027 16.1767C88.1183 15.8812 88.9039 15.7334 89.7594 15.7334ZM89.4327 26.0001C90.5061 26.0001 91.385 25.6423 92.0694 24.9267C92.7694 24.2112 93.1194 23.2701 93.1194 22.1034C93.1194 20.9367 92.7694 19.9956 92.0694 19.2801C91.385 18.5645 90.5061 18.2067 89.4327 18.2067C88.7327 18.2067 88.1027 18.3701 87.5427 18.6967C86.9827 19.0078 86.5394 19.459 86.2127 20.0501C85.8861 20.6412 85.7227 21.3256 85.7227 22.1034C85.7227 22.8812 85.8861 23.5656 86.2127 24.1567C86.5394 24.7478 86.9827 25.2067 87.5427 25.5334C88.1027 25.8445 88.7327 26.0001 89.4327 26.0001Z" fill="#101828"/>
<path d="M105.919 15.7334C107.49 15.7334 108.75 16.1923 109.699 17.1101C110.648 18.0278 111.122 19.389 111.122 21.1934V28.3334H108.205V21.5667C108.205 20.4778 107.949 19.6612 107.435 19.1167C106.922 18.5567 106.191 18.2767 105.242 18.2767C104.169 18.2767 103.321 18.6034 102.699 19.2567C102.077 19.8945 101.765 20.8201 101.765 22.0334V28.3334H98.8488V11.0201H101.765V17.3201C102.248 16.8067 102.839 16.4178 103.539 16.1534C104.254 15.8734 105.048 15.7334 105.919 15.7334Z" fill="#101828"/>
<path d="M126.885 15.8734V28.3334H124.109V26.7467C123.642 27.3067 123.059 27.7423 122.359 28.0534C121.659 28.349 120.904 28.4967 120.095 28.4967C118.431 28.4967 117.117 28.0378 116.152 27.1201C115.203 26.1867 114.729 24.8101 114.729 22.9901V15.8734H117.645V22.5934C117.645 23.7134 117.894 24.5534 118.392 25.1134C118.905 25.6578 119.629 25.9301 120.562 25.9301C121.604 25.9301 122.429 25.6112 123.035 24.9734C123.658 24.3201 123.969 23.3867 123.969 22.1734V15.8734H126.885Z" fill="#101828"/>
<path d="M134.554 28.4967C133.543 28.4967 132.555 28.3645 131.591 28.1001C130.627 27.8356 129.857 27.5012 129.281 27.0967L130.401 24.8801C130.961 25.2534 131.63 25.5567 132.408 25.7901C133.201 26.0078 133.979 26.1167 134.741 26.1167C136.483 26.1167 137.354 25.6578 137.354 24.7401C137.354 24.3045 137.129 24.0012 136.678 23.8301C136.242 23.659 135.534 23.4956 134.554 23.3401C133.528 23.1845 132.688 23.0056 132.034 22.8034C131.397 22.6012 130.837 22.2512 130.354 21.7534C129.888 21.2401 129.654 20.5323 129.654 19.6301C129.654 18.4478 130.144 17.5067 131.124 16.8067C132.12 16.0912 133.458 15.7334 135.138 15.7334C135.993 15.7334 136.849 15.8345 137.704 16.0367C138.56 16.2234 139.26 16.4801 139.804 16.8067L138.684 19.0234C137.627 18.4012 136.437 18.0901 135.114 18.0901C134.259 18.0901 133.605 18.2223 133.154 18.4867C132.719 18.7356 132.501 19.0701 132.501 19.4901C132.501 19.9567 132.734 20.2912 133.201 20.4934C133.683 20.6801 134.422 20.859 135.418 21.0301C136.413 21.1856 137.23 21.3645 137.868 21.5667C138.505 21.769 139.05 22.1112 139.501 22.5934C139.968 23.0756 140.201 23.7601 140.201 24.6467C140.201 25.8134 139.695 26.7467 138.684 27.4467C137.673 28.1467 136.297 28.4967 134.554 28.4967Z" fill="#101828"/>
</svg>
