<svg width="149" height="36" viewBox="0 0 149 36" fill="none" xmlns="http://www.w3.org/2000/svg">
<path d="M23.1967 1.5H10.5533L0.375 11.6783V24.3217L10.5533 34.5H23.1967L33.375 24.3217V11.6783L23.1967 1.5ZM12.3027 24.4807L5.78224 17.9602L12.3027 11.4398C14.7678 8.9747 18.8232 8.9747 21.2883 11.4398L27.8087 17.9602L21.2883 24.4807C18.8232 26.9458 14.8473 26.9458 12.3027 24.4807Z" fill="#444CE7"/>
<path d="M47.88 25.68C49.905 25.68 51.57 24.645 52.0875 23.0925V25.5H55.08V19.425C55.08 18.0525 54 16.8825 52.5375 16.8825H48.2625V19.425H51.3C51.6825 19.425 51.93 19.6725 51.93 20.055C51.93 21.5175 49.995 22.935 48.0375 22.935C45.4275 22.935 43.3575 20.8875 43.3575 17.625C43.3575 14.3625 45.4275 12.4725 48.105 12.4725C50.13 12.4725 51.525 13.575 51.7725 15.2625H55.125C54.9225 11.8875 52.0875 9.57004 48.1275 9.57004C43.965 9.57004 40.14 12.2475 40.14 17.625C40.14 23.0025 43.8525 25.68 47.88 25.68Z" fill="#101828"/>
<path d="M56.3646 25.5H59.4921V9.23254H56.3646V25.5Z" fill="#101828"/>
<path d="M66.2384 25.68C69.7259 25.68 72.2234 23.205 72.2234 19.83C72.2234 16.455 69.7259 13.98 66.2384 13.98C62.7509 13.98 60.2534 16.455 60.2534 19.83C60.2534 23.205 62.7509 25.68 66.2384 25.68ZM66.2384 22.98C64.5509 22.98 63.4034 21.6975 63.4034 19.83C63.4034 17.94 64.5509 16.6575 66.2384 16.6575C67.9259 16.6575 69.0734 17.94 69.0734 19.83C69.0734 21.6975 67.9259 22.98 66.2384 22.98Z" fill="#101828"/>
<path d="M79.2216 25.68C82.5741 25.68 84.5766 23.3625 84.5766 19.83C84.5766 16.2975 82.5741 13.98 79.2666 13.98C77.8491 13.98 76.7466 14.52 76.1166 15.3525V9.23254H72.9891V25.5H76.1166V24.2625C76.7466 25.14 77.9166 25.68 79.2216 25.68ZM78.7266 22.98C77.0391 22.98 75.9366 21.72 75.9366 19.83C75.9366 17.9175 77.0391 16.6575 78.7266 16.6575C80.3691 16.6575 81.4941 17.9175 81.4941 19.83C81.4941 21.72 80.3691 22.98 78.7266 22.98Z" fill="#101828"/>
<path d="M89.8119 13.98C86.7069 13.98 84.8619 15.8025 84.7269 18.075H87.5169C87.5619 17.13 88.2594 16.275 89.6319 16.275C90.9144 16.275 91.6569 16.9275 91.6569 17.8725C91.6569 18.345 91.3644 18.705 90.8019 18.705H88.8894C86.4144 18.705 84.7494 20.055 84.7494 22.2825C84.7494 24.2175 86.2569 25.68 88.4619 25.68C90.0144 25.68 91.2744 24.9825 91.6569 23.925V25.5H94.7619V18.21C94.7619 15.645 92.6694 13.98 89.8119 13.98ZM89.2494 23.4075C88.3719 23.4075 87.7419 22.89 87.7419 22.1475C87.7419 21.27 88.4169 20.685 89.3619 20.685H91.6569V20.8425C91.6569 22.2825 90.7794 23.4075 89.2494 23.4075Z" fill="#101828"/>
<path d="M95.9637 25.5H99.0913V9.23254H95.9637V25.5Z" fill="#101828"/>
<path d="M100.753 25.5H107.188C110.518 25.5 112.813 23.79 112.813 20.7975C112.813 18.7275 111.598 17.4675 110.158 16.905C111.08 16.41 112.003 15.285 112.003 13.8C112.003 11.1675 109.865 9.75004 107.008 9.75004H100.753V25.5ZM104.083 15.7575V12.4275H106.693C108.2 12.4275 108.875 13.035 108.875 14.0925C108.875 15.15 108.2 15.7575 106.76 15.7575H104.083ZM104.083 22.575V18.615H106.895C108.763 18.615 109.595 19.335 109.595 20.6175C109.595 21.9 108.763 22.575 106.895 22.575H104.083Z" fill="#101828"/>
<path d="M118.253 13.98C115.148 13.98 113.303 15.8025 113.168 18.075H115.958C116.003 17.13 116.701 16.275 118.073 16.275C119.356 16.275 120.098 16.9275 120.098 17.8725C120.098 18.345 119.806 18.705 119.243 18.705H117.331C114.856 18.705 113.191 20.055 113.191 22.2825C113.191 24.2175 114.698 25.68 116.903 25.68C118.456 25.68 119.716 24.9825 120.098 23.925V25.5H123.203V18.21C123.203 15.645 121.111 13.98 118.253 13.98ZM117.691 23.4075C116.813 23.4075 116.183 22.89 116.183 22.1475C116.183 21.27 116.858 20.685 117.803 20.685H120.098V20.8425C120.098 22.2825 119.221 23.4075 117.691 23.4075Z" fill="#101828"/>
<path d="M124.225 25.5H127.375V19.29C127.375 17.8275 128.343 16.77 129.715 16.77C131.02 16.77 131.898 17.76 131.898 19.1325V25.5H135.048V18.435C135.048 15.825 133.383 13.98 130.818 13.98C129.265 13.98 128.005 14.6325 127.375 15.735V14.16H124.225V25.5Z" fill="#101828"/>
<path d="M144.025 25.5H147.805L142.923 18.615L147.445 14.16H143.485L139.548 18.03V9.23254H136.398V25.5H139.548V21.945L140.808 20.7075L144.025 25.5Z" fill="#101828"/>
</svg>
