<svg width="126" height="36" viewBox="0 0 126 36" fill="none" xmlns="http://www.w3.org/2000/svg">
<path fill-rule="evenodd" clip-rule="evenodd" d="M15.4491 2.58589C15.0703 2.50799 14.6797 2.50799 14.3009 2.58589C13.863 2.67594 13.4717 2.89514 13.1606 3.0694L13.0758 3.11678L2.53115 8.9749C2.502 8.99109 2.47196 9.00764 2.44118 9.02459C2.11183 9.206 1.69771 9.43409 1.3797 9.77918C1.10476 10.0775 0.896685 10.4312 0.769402 10.8164C0.62218 11.262 0.623903 11.7347 0.625272 12.1107C0.6254 12.1459 0.625525 12.1802 0.625525 12.2135V23.78C0.625525 23.8133 0.6254 23.8476 0.625272 23.8828C0.623903 24.2588 0.62218 24.7315 0.769402 25.1771C0.896685 25.5624 1.10476 25.916 1.3797 26.2143C1.69772 26.5594 2.11183 26.7875 2.44118 26.9689C2.47196 26.9859 2.502 27.0024 2.53115 27.0186L13.0758 32.8767L13.1606 32.9241C13.4717 33.0984 13.863 33.3176 14.3009 33.4076C14.6797 33.4855 15.0703 33.4855 15.4491 33.4076C15.887 33.3176 16.2783 33.0984 16.5894 32.9241L16.6742 32.8767L27.2189 27.0186C27.2317 27.0115 27.2448 27.0042 27.258 26.9969C27.2747 26.9877 27.2916 26.9784 27.3088 26.9689C27.6382 26.7875 28.0523 26.5594 28.3703 26.2143C28.6452 25.916 28.8533 25.5624 28.9806 25.1771C29.1278 24.7315 29.1261 24.2588 29.1247 23.8828C29.1246 23.8476 29.1245 23.8133 29.1245 23.78V12.2135C29.1245 12.1802 29.1246 12.1459 29.1247 12.1108C29.1261 11.7347 29.1278 11.262 28.9806 10.8164C28.8533 10.4312 28.6452 10.0775 28.3703 9.77917C28.0523 9.43408 27.6382 9.20599 27.3088 9.02458L27.3077 9.02395C27.2773 9.00722 27.2476 8.99088 27.2189 8.97489L16.6742 3.11678L16.5894 3.0694C16.2783 2.89514 15.887 2.67594 15.4491 2.58589ZM14.4598 5.60803C14.6757 5.48807 14.786 5.42745 14.8682 5.38779L14.875 5.38453L14.8818 5.38779C14.964 5.42745 15.0743 5.48807 15.2902 5.60803L24.7653 10.872L14.875 16.3666L4.98464 10.872L14.4598 5.60803ZM3.47542 13.2937L13.45 18.8352L13.45 29.8245L3.91518 24.5274C3.68726 24.4007 3.57089 24.3354 3.48924 24.2834L3.48235 24.279L3.48183 24.2708C3.47601 24.1742 3.47542 24.0407 3.47542 23.78V13.2937Z" fill="#101828"/>
<path d="M42.0934 22.7589H46.6294V25.4319H38.6306V11.2164H42.0934V22.7589Z" fill="#101828"/>
<path d="M49.82 12.9579C49.2125 12.9579 48.713 12.7824 48.3215 12.4314C47.9435 12.0669 47.7545 11.6214 47.7545 11.0949C47.7545 10.5549 47.9435 10.1094 48.3215 9.75842C48.713 9.39392 49.2125 9.21167 49.82 9.21167C50.414 9.21167 50.9 9.39392 51.278 9.75842C51.6695 10.1094 51.8653 10.5549 51.8653 11.0949C51.8653 11.6214 51.6695 12.0669 51.278 12.4314C50.9 12.7824 50.414 12.9579 49.82 12.9579ZM51.5413 14.1324V25.4319H48.0785V14.1324H51.5413Z" fill="#101828"/>
<path d="M58.1412 13.9704C58.9377 13.9704 59.6329 14.1324 60.2269 14.4564C60.8344 14.7804 61.3002 15.2057 61.6242 15.7322V14.1324H65.0869V25.4117C65.0869 26.4512 64.8777 27.3894 64.4592 28.2264C64.0542 29.0769 63.4264 29.7519 62.5759 30.2514C61.7389 30.7509 60.6927 31.0007 59.4372 31.0007C57.7632 31.0007 56.4064 30.6024 55.3669 29.8059C54.3274 29.0229 53.7334 27.9564 53.5849 26.6064H57.0072C57.1152 27.0384 57.3717 27.3759 57.7767 27.6189C58.1817 27.8754 58.6812 28.0037 59.2752 28.0037C59.9907 28.0037 60.5577 27.7944 60.9762 27.3759C61.4082 26.9709 61.6242 26.3162 61.6242 25.4117V23.8119C61.2867 24.3384 60.8209 24.7704 60.2269 25.1079C59.6329 25.4319 58.9377 25.5939 58.1412 25.5939C57.2097 25.5939 56.3659 25.3577 55.6099 24.8852C54.8539 24.3992 54.2532 23.7174 53.8077 22.8399C53.3757 21.9489 53.1597 20.9229 53.1597 19.7619C53.1597 18.6009 53.3757 17.5817 53.8077 16.7042C54.2532 15.8267 54.8539 15.1517 55.6099 14.6792C56.3659 14.2067 57.2097 13.9704 58.1412 13.9704ZM61.6242 19.7822C61.6242 18.9182 61.3812 18.2364 60.8952 17.7369C60.4227 17.2374 59.8422 16.9877 59.1537 16.9877C58.4652 16.9877 57.8779 17.2374 57.3919 17.7369C56.9194 18.2229 56.6832 18.8979 56.6832 19.7619C56.6832 20.6259 56.9194 21.3144 57.3919 21.8274C57.8779 22.3269 58.4652 22.5767 59.1537 22.5767C59.8422 22.5767 60.4227 22.3269 60.8952 21.8274C61.3812 21.3279 61.6242 20.6462 61.6242 19.7822Z" fill="#101828"/>
<path d="M74.3353 14.0109C75.6313 14.0109 76.6708 14.4429 77.4538 15.3069C78.2368 16.1574 78.6283 17.3319 78.6283 18.8304V25.4319H75.1858V19.2962C75.1858 18.5402 74.9901 17.9529 74.5986 17.5344C74.2071 17.1159 73.6806 16.9067 73.0191 16.9067C72.3576 16.9067 71.8311 17.1159 71.4396 17.5344C71.0481 17.9529 70.8523 18.5402 70.8523 19.2962V25.4319H67.3896V10.4469H70.8523V15.6512C71.2033 15.1517 71.6826 14.7534 72.2901 14.4564C72.8976 14.1594 73.5793 14.0109 74.3353 14.0109Z" fill="#101828"/>
<path d="M87.1298 22.4957V25.4319H85.3681C84.1126 25.4319 83.1338 25.1282 82.4318 24.5207C81.7298 23.8997 81.3788 22.8939 81.3788 21.5034V17.0079H80.0018V14.1324H81.3788V11.3784H84.8416V14.1324H87.1096V17.0079H84.8416V21.5439C84.8416 21.8814 84.9226 22.1244 85.0846 22.2729C85.2466 22.4214 85.5166 22.4957 85.8946 22.4957H87.1298Z" fill="#101828"/>
<path d="M92.3189 15.7322C92.6429 15.2057 93.1087 14.7804 93.7162 14.4564C94.3237 14.1324 95.0189 13.9704 95.8019 13.9704C96.7334 13.9704 97.5772 14.2067 98.3332 14.6792C99.0892 15.1517 99.6832 15.8267 100.115 16.7042C100.561 17.5817 100.783 18.6009 100.783 19.7619C100.783 20.9229 100.561 21.9489 100.115 22.8399C99.6832 23.7174 99.0892 24.3992 98.3332 24.8852C97.5772 25.3577 96.7334 25.5939 95.8019 25.5939C95.0054 25.5939 94.3102 25.4387 93.7162 25.1282C93.1222 24.8042 92.6564 24.3789 92.3189 23.8524V25.4319H88.8562V10.4469H92.3189V15.7322ZM97.2599 19.7619C97.2599 18.8979 97.0169 18.2229 96.5309 17.7369C96.0584 17.2374 95.4712 16.9877 94.7692 16.9877C94.0807 16.9877 93.4934 17.2374 93.0074 17.7369C92.5349 18.2364 92.2987 18.9182 92.2987 19.7822C92.2987 20.6462 92.5349 21.3279 93.0074 21.8274C93.4934 22.3269 94.0807 22.5767 94.7692 22.5767C95.4577 22.5767 96.0449 22.3269 96.5309 21.8274C97.0169 21.3144 97.2599 20.6259 97.2599 19.7619Z" fill="#101828"/>
<path d="M107.541 25.5939C106.434 25.5939 105.435 25.3577 104.544 24.8852C103.667 24.4127 102.971 23.7377 102.458 22.8602C101.959 21.9827 101.709 20.9567 101.709 19.7822C101.709 18.6212 101.966 17.6019 102.479 16.7244C102.992 15.8334 103.694 15.1517 104.585 14.6792C105.476 14.2067 106.475 13.9704 107.582 13.9704C108.689 13.9704 109.688 14.2067 110.579 14.6792C111.47 15.1517 112.172 15.8334 112.685 16.7244C113.198 17.6019 113.454 18.6212 113.454 19.7822C113.454 20.9432 113.191 21.9692 112.664 22.8602C112.151 23.7377 111.443 24.4127 110.538 24.8852C109.647 25.3577 108.648 25.5939 107.541 25.5939ZM107.541 22.5969C108.203 22.5969 108.763 22.3539 109.222 21.8679C109.694 21.3819 109.931 20.6867 109.931 19.7822C109.931 18.8777 109.701 18.1824 109.242 17.6964C108.797 17.2104 108.243 16.9674 107.582 16.9674C106.907 16.9674 106.346 17.2104 105.901 17.6964C105.455 18.1689 105.233 18.8642 105.233 19.7822C105.233 20.6867 105.449 21.3819 105.881 21.8679C106.326 22.3539 106.88 22.5969 107.541 22.5969Z" fill="#101828"/>
<path d="M121.771 25.4319L119.604 22.2932L117.782 25.4319H114.036L117.762 19.6607L113.934 14.1324H117.822L119.989 17.2509L121.812 14.1324H125.558L121.771 19.8227L125.659 25.4319H121.771Z" fill="#101828"/>
</svg>
