<svg width="128" height="36" viewBox="0 0 128 36" fill="none" xmlns="http://www.w3.org/2000/svg">
<path fill-rule="evenodd" clip-rule="evenodd" d="M16.625 34.5C25.7377 34.5 33.125 27.1127 33.125 18C33.125 8.88731 25.7377 1.5 16.625 1.5C7.51228 1.5 0.125 8.88731 0.125 18C0.125 27.1127 7.51228 34.5 16.625 34.5ZM21.7724 9.1864C22.023 8.2964 21.1593 7.77011 20.3705 8.33208L9.35932 16.1764C8.50388 16.7858 8.63843 18 9.56144 18H12.461V17.9775H18.1121L13.5075 19.6022L11.4776 26.8136C11.227 27.7036 12.0906 28.2299 12.8795 27.6679L23.8907 19.8237C24.7461 19.2142 24.6115 18 23.6886 18H19.2915L21.7724 9.1864Z" fill="#155EEF"/>
<path d="M41.66 25.4319V22.8219H43.73V12.2919H41.66V9.68194H49.76C50.72 9.68194 51.5525 9.84694 52.2575 10.1769C52.9775 10.4919 53.5325 10.9494 53.9225 11.5494C54.3275 12.1344 54.53 12.8394 54.53 13.6644V13.8894C54.53 14.6094 54.395 15.2019 54.125 15.6669C53.855 16.1169 53.5325 16.4694 53.1575 16.7244C52.7975 16.9644 52.4525 17.1369 52.1225 17.2419V17.6469C52.4525 17.7369 52.8125 17.9094 53.2025 18.1644C53.5925 18.4044 53.9225 18.7569 54.1925 19.2219C54.4775 19.6869 54.62 20.2944 54.62 21.0444V21.2694C54.62 22.1394 54.4175 22.8894 54.0125 23.5194C53.6075 24.1344 53.045 24.6069 52.325 24.9369C51.62 25.2669 50.795 25.4319 49.85 25.4319H41.66ZM46.7 22.7319H49.49C50.135 22.7319 50.6525 22.5744 51.0425 22.2594C51.4475 21.9444 51.65 21.4944 51.65 20.9094V20.6844C51.65 20.0994 51.455 19.6494 51.065 19.3344C50.675 19.0194 50.15 18.8619 49.49 18.8619H46.7V22.7319ZM46.7 16.1619H49.445C50.06 16.1619 50.5625 16.0044 50.9525 15.6894C51.3575 15.3744 51.56 14.9394 51.56 14.3844V14.1594C51.56 13.5894 51.365 13.1544 50.975 12.8544C50.585 12.5394 50.075 12.3819 49.445 12.3819H46.7V16.1619Z" fill="#101828"/>
<path d="M61.3264 25.7469C60.2164 25.7469 59.2189 25.5219 58.3339 25.0719C57.4489 24.6219 56.7514 23.9694 56.2414 23.1144C55.7314 22.2594 55.4764 21.2319 55.4764 20.0319V19.6719C55.4764 18.4719 55.7314 17.4444 56.2414 16.5894C56.7514 15.7344 57.4489 15.0819 58.3339 14.6319C59.2189 14.1819 60.2164 13.9569 61.3264 13.9569C62.4364 13.9569 63.4339 14.1819 64.3189 14.6319C65.2039 15.0819 65.9014 15.7344 66.4114 16.5894C66.9214 17.4444 67.1764 18.4719 67.1764 19.6719V20.0319C67.1764 21.2319 66.9214 22.2594 66.4114 23.1144C65.9014 23.9694 65.2039 24.6219 64.3189 25.0719C63.4339 25.5219 62.4364 25.7469 61.3264 25.7469ZM61.3264 23.2269C62.1964 23.2269 62.9164 22.9494 63.4864 22.3944C64.0564 21.8244 64.3414 21.0144 64.3414 19.9644V19.7394C64.3414 18.6894 64.0564 17.8869 63.4864 17.3319C62.9314 16.7619 62.2114 16.4769 61.3264 16.4769C60.4564 16.4769 59.7364 16.7619 59.1664 17.3319C58.5964 17.8869 58.3114 18.6894 58.3114 19.7394V19.9644C58.3114 21.0144 58.5964 21.8244 59.1664 22.3944C59.7364 22.9494 60.4564 23.2269 61.3264 23.2269Z" fill="#101828"/>
<path d="M68.6683 25.4319V9.68194H71.5033V25.4319H68.6683Z" fill="#101828"/>
<path d="M77.7949 25.4319C77.0599 25.4319 76.4599 25.2069 75.9949 24.7569C75.5449 24.2919 75.3199 23.6769 75.3199 22.9119V16.6119H72.5299V14.2719H75.3199V10.8069H78.1549V14.2719H81.2149V16.6119H78.1549V22.4169C78.1549 22.8669 78.3649 23.0919 78.7849 23.0919H80.9449V25.4319H77.7949Z" fill="#101828"/>
<path d="M87.2911 25.7469C85.8361 25.7469 84.6436 25.4319 83.7136 24.8019C82.7836 24.1719 82.2211 23.2719 82.0261 22.1019L84.6361 21.4269C84.7411 21.9519 84.9136 22.3644 85.1536 22.6644C85.4086 22.9644 85.7161 23.1819 86.0761 23.3169C86.4511 23.4369 86.8561 23.4969 87.2911 23.4969C87.9511 23.4969 88.4386 23.3844 88.7536 23.1594C89.0686 22.9194 89.2261 22.6269 89.2261 22.2819C89.2261 21.9369 89.0761 21.6744 88.7761 21.4944C88.4761 21.2994 87.9961 21.1419 87.3361 21.0219L86.7061 20.9094C85.9261 20.7594 85.2136 20.5569 84.5686 20.3019C83.9236 20.0319 83.4061 19.6644 83.0161 19.1994C82.6261 18.7344 82.4311 18.1344 82.4311 17.3994C82.4311 16.2894 82.8361 15.4419 83.6461 14.8569C84.4561 14.2569 85.5211 13.9569 86.8411 13.9569C88.0861 13.9569 89.1211 14.2344 89.9461 14.7894C90.7711 15.3444 91.3111 16.0719 91.5661 16.9719L88.9336 17.7819C88.8136 17.2119 88.5661 16.8069 88.1911 16.5669C87.8311 16.3269 87.3811 16.2069 86.8411 16.2069C86.3011 16.2069 85.8886 16.3044 85.6036 16.4994C85.3186 16.6794 85.1761 16.9344 85.1761 17.2644C85.1761 17.6244 85.3261 17.8944 85.6261 18.0744C85.9261 18.2394 86.3311 18.3669 86.8411 18.4569L87.4711 18.5694C88.3111 18.7194 89.0686 18.9219 89.7436 19.1769C90.4336 19.4169 90.9736 19.7694 91.3636 20.2344C91.7686 20.6844 91.9711 21.2994 91.9711 22.0794C91.9711 23.2494 91.5436 24.1569 90.6886 24.8019C89.8486 25.4319 88.7161 25.7469 87.2911 25.7469Z" fill="#101828"/>
<path d="M93.3304 25.4319V9.68194H96.1654V15.6444H96.5704C96.6904 15.4044 96.8779 15.1644 97.1329 14.9244C97.3879 14.6844 97.7254 14.4894 98.1454 14.3394C98.5804 14.1744 99.1279 14.0919 99.7879 14.0919C100.658 14.0919 101.415 14.2944 102.06 14.6994C102.72 15.0894 103.23 15.6369 103.59 16.3419C103.95 17.0319 104.13 17.8419 104.13 18.7719V25.4319H101.295V18.9969C101.295 18.1569 101.085 17.5269 100.665 17.1069C100.26 16.6869 99.6754 16.4769 98.9104 16.4769C98.0404 16.4769 97.3654 16.7694 96.8854 17.3544C96.4054 17.9244 96.1654 18.7269 96.1654 19.7619V25.4319H93.3304Z" fill="#101828"/>
<path d="M106.07 25.4319V14.2719H108.905V25.4319H106.07ZM107.488 12.9669C106.978 12.9669 106.543 12.8019 106.183 12.4719C105.838 12.1419 105.665 11.7069 105.665 11.1669C105.665 10.6269 105.838 10.1919 106.183 9.86194C106.543 9.53194 106.978 9.36694 107.488 9.36694C108.013 9.36694 108.448 9.53194 108.793 9.86194C109.138 10.1919 109.31 10.6269 109.31 11.1669C109.31 11.7069 109.138 12.1419 108.793 12.4719C108.448 12.8019 108.013 12.9669 107.488 12.9669Z" fill="#101828"/>
<path d="M112.767 25.4319V16.6119H109.932V14.2719H112.767V12.2019C112.767 11.4369 112.992 10.8294 113.442 10.3794C113.907 9.91444 114.507 9.68194 115.242 9.68194H118.167V12.0219H116.232C115.812 12.0219 115.602 12.2469 115.602 12.6969V14.2719H118.527V16.6119H115.602V25.4319H112.767Z" fill="#101828"/>
<path d="M123.652 25.4319C122.917 25.4319 122.317 25.2069 121.852 24.7569C121.402 24.2919 121.177 23.6769 121.177 22.9119V16.6119H118.387V14.2719H121.177V10.8069H124.012V14.2719H127.072V16.6119H124.012V22.4169C124.012 22.8669 124.222 23.0919 124.642 23.0919H126.802V25.4319H123.652Z" fill="#101828"/>
</svg>
