<svg width="21" height="20" viewBox="0 0 21 20" fill="none" xmlns="http://www.w3.org/2000/svg">
<path d="M5.5786 9.35741C5.5268 9.0236 5.49993 8.68163 5.49993 8.33342C5.49993 4.65152 8.50433 1.66675 12.2105 1.66675C15.9166 1.66675 18.921 4.65152 18.921 8.33342C18.921 9.16514 18.7677 9.96129 18.4876 10.6955C18.4294 10.848 18.4003 10.9242 18.3871 10.9838C18.374 11.0427 18.369 11.0842 18.3676 11.1446C18.3661 11.2056 18.3744 11.2727 18.3909 11.407L18.7264 14.1322C18.7627 14.4272 18.7809 14.5747 18.7318 14.6819C18.6888 14.7759 18.6125 14.8505 18.5175 14.8913C18.4092 14.9379 18.2621 14.9164 17.9681 14.8733L15.3137 14.4842C15.1751 14.4639 15.1058 14.4537 15.0427 14.4541C14.9802 14.4544 14.937 14.459 14.8759 14.4719C14.8142 14.4849 14.7353 14.5144 14.5774 14.5735C13.8414 14.8492 13.0436 15.0001 12.2105 15.0001C11.862 15.0001 11.5197 14.9737 11.1855 14.9228M6.85961 18.3334C9.33036 18.3334 11.3333 16.2814 11.3333 13.7501C11.3333 11.2188 9.33036 9.16675 6.85961 9.16675C4.38886 9.16675 2.38592 11.2188 2.38592 13.7501C2.38592 14.2589 2.46686 14.7484 2.61625 15.2057C2.6794 15.399 2.71098 15.4957 2.72134 15.5617C2.73216 15.6306 2.73406 15.6694 2.73003 15.739C2.72617 15.8057 2.70947 15.8812 2.67608 16.032L2.16663 18.3334L4.66229 17.9926C4.79851 17.974 4.86662 17.9647 4.9261 17.9651C4.98873 17.9655 5.02196 17.9689 5.08338 17.9811C5.14171 17.9928 5.22843 18.0234 5.40185 18.0846C5.85879 18.2458 6.34922 18.3334 6.85961 18.3334Z" stroke="#7F56D9" stroke-width="1.66667" stroke-linecap="round" stroke-linejoin="round"/>
</svg>
