<svg width="21" height="20" viewBox="0 0 21 20" fill="none" xmlns="http://www.w3.org/2000/svg">
<path d="M17.9997 9.58333C17.9997 13.4953 14.8284 16.6667 10.9164 16.6667C10.0191 16.6667 9.16073 16.4998 8.37069 16.1954C8.22625 16.1398 8.15402 16.112 8.09659 16.0987C8.0401 16.0857 7.99921 16.0803 7.94128 16.0781C7.88238 16.0758 7.81777 16.0825 7.68853 16.0958L3.42101 16.537C3.01414 16.579 2.81071 16.6001 2.69071 16.5269C2.58618 16.4631 2.51499 16.3566 2.49604 16.2356C2.47429 16.0968 2.5715 15.9168 2.76593 15.557L4.12897 13.034C4.24122 12.8262 4.29735 12.7223 4.32277 12.6225C4.34788 12.5238 4.35395 12.4527 4.34592 12.3512C4.33779 12.2484 4.2927 12.1147 4.20254 11.8472C3.96293 11.1363 3.83306 10.375 3.83306 9.58333C3.83306 5.67132 7.00438 2.5 10.9164 2.5C14.8284 2.5 17.9997 5.67132 17.9997 9.58333Z" stroke="#7F56D9" stroke-width="1.66667" stroke-linecap="round" stroke-linejoin="round"/>
<path fill-rule="evenodd" clip-rule="evenodd" d="M10.9138 7.45771C10.1641 6.592 8.9138 6.35913 7.97441 7.15186C7.03501 7.94459 6.90276 9.26999 7.64047 10.2076C8.09751 10.7884 9.24463 11.8493 10.0514 12.5725C10.3477 12.8381 10.4959 12.9709 10.6737 13.0244C10.8262 13.0703 11.0014 13.0703 11.154 13.0244C11.3318 12.9709 11.48 12.8381 11.7763 12.5725C12.583 11.8493 13.7301 10.7884 14.1872 10.2076C14.9249 9.26999 14.8088 7.93625 13.8532 7.15186C12.8977 6.36747 11.6636 6.592 10.9138 7.45771Z" stroke="#7F56D9" stroke-width="1.66667" stroke-linecap="round" stroke-linejoin="round"/>
</svg>
