<svg width="21" height="20" viewBox="0 0 21 20" fill="none" xmlns="http://www.w3.org/2000/svg">
<path d="M7.99973 11.6667C7.99973 11.6667 9.09348 12.9167 10.9164 12.9167C12.7393 12.9167 13.8331 11.6667 13.8331 11.6667M13.2081 7.5H13.2164M8.62473 7.5H8.63306M10.9164 16.6667C14.8284 16.6667 17.9997 13.4953 17.9997 9.58333C17.9997 5.67132 14.8284 2.5 10.9164 2.5C7.00438 2.5 3.83306 5.67132 3.83306 9.58333C3.83306 10.375 3.96293 11.1363 4.20254 11.8472C4.2927 12.1147 4.33779 12.2484 4.34592 12.3512C4.35395 12.4527 4.34788 12.5238 4.32277 12.6225C4.29735 12.7223 4.24122 12.8262 4.12897 13.034L2.76593 15.557C2.5715 15.9168 2.47429 16.0968 2.49604 16.2356C2.51499 16.3566 2.58618 16.4631 2.69071 16.5269C2.81071 16.6001 3.01414 16.579 3.42101 16.537L7.68853 16.0958C7.81777 16.0825 7.88238 16.0758 7.94128 16.0781C7.99921 16.0803 8.0401 16.0857 8.09659 16.0987C8.15402 16.112 8.22625 16.1398 8.37069 16.1954C9.16073 16.4998 10.0191 16.6667 10.9164 16.6667ZM13.6247 7.5C13.6247 7.73012 13.4382 7.91667 13.2081 7.91667C12.9779 7.91667 12.7914 7.73012 12.7914 7.5C12.7914 7.26988 12.9779 7.08333 13.2081 7.08333C13.4382 7.08333 13.6247 7.26988 13.6247 7.5ZM9.04139 7.5C9.04139 7.73012 8.85485 7.91667 8.62473 7.91667C8.39461 7.91667 8.20806 7.73012 8.20806 7.5C8.20806 7.26988 8.39461 7.08333 8.62473 7.08333C8.85485 7.08333 9.04139 7.26988 9.04139 7.5Z" stroke="#7F56D9" stroke-width="1.66667" stroke-linecap="round" stroke-linejoin="round"/>
</svg>
